<?xml version="1.0" encoding="UTF-8" standalone="no"?>
<!DOCTYPE svg PUBLIC "-//W3C//DTD SVG 1.1//EN" "http://www.w3.org/Graphics/SVG/1.1/DTD/svg11.dtd">
<svg width="100%" height="100%" viewBox="0 0 940 234" version="1.1" xmlns="http://www.w3.org/2000/svg" xmlns:xlink="http://www.w3.org/1999/xlink" xml:space="preserve" xmlns:serif="http://www.serif.com/" style="fill-rule:evenodd;clip-rule:evenodd;stroke-linejoin:round;stroke-miterlimit:2;">
    <g id="text18">
    </g>
    <rect id="Mesa-de-trabajo1" serif:id="Mesa de trabajo1" x="0" y="0" width="939.466" height="233.3" style="fill:none;"/>
    <clipPath id="_clip1">
        <rect id="Mesa-de-trabajo11" serif:id="Mesa de trabajo1" x="0" y="0" width="939.466" height="233.3"/>
    </clipPath>
    <g clip-path="url(#_clip1)">
        <g transform="matrix(1.046066,0,0,1.046066,-27.729828,-150.749178)">
            <g id="path2-7-5" transform="matrix(1.398696,0,0,1.398696,-189.601918,-101.915902)">
                <path d="M517.969,176.199C548.801,173.02 576.428,195.3 579.851,226.106C583.275,256.912 561.214,284.714 530.436,288.381C499.312,292.09 471.128,269.726 467.666,238.574C464.204,207.421 486.79,179.415 517.969,176.199ZM519.598,193.183C497.968,195.477 482.339,214.941 484.772,236.556C487.205,258.172 506.77,273.675 528.369,271.102C549.773,268.554 565.105,249.205 562.694,227.785C560.283,206.366 541.033,190.91 519.598,193.183Z" style="fill:currentColor;fill-rule:nonzero;"/>
            </g>
            <g id="path4-5-3" transform="matrix(1.398696,0,0,1.398696,-189.601918,-101.915902)">
                <path d="M742.661,177.982C743.794,178.996 751.045,193.126 752.584,195.847C748.721,203.669 743.023,212.68 738.78,220.494C727.009,242.175 713.92,263.655 702.564,285.509C689.443,285.211 675.985,285.523 662.785,285.373C655.282,273.718 648.59,261.365 640.862,249.373L614.931,249.264L614.946,285.217L598.223,285.242L598.28,201.594C598.29,193.983 598.24,186.372 598.144,178.762L628.876,178.65C639.144,178.615 652.359,177.489 662.279,180.909C680.584,187.219 687.454,209.796 681.101,226.981C677.01,238.047 669.653,242.813 659.094,247.388C666.548,259.851 674.729,272.111 682.226,284.695C702.922,250.173 721.915,211.954 742.661,177.982ZM614.987,195.203L614.902,232.923C627.516,232.844 652.752,235.481 661.792,227.195C663.503,225.007 664.651,223.489 665.647,220.819C668.532,213.09 665.939,203.276 659.132,198.443C654.307,195.019 648.856,194.934 643.22,194.958C633.812,194.997 624.395,195.241 614.987,195.203Z" style="fill:currentColor;fill-rule:nonzero;"/>
            </g>
            <g id="path6-18-6" transform="matrix(1.398696,0,0,1.398696,-189.601918,-101.915902)">
                <path d="M272.89,177.103C280.62,183.2 289.999,194.074 297.393,200.947C313.531,215.948 329.017,231.747 345.042,246.842C345.384,224.393 345.079,201.265 344.999,178.771L362.45,178.879C362.719,214.607 362.764,250.336 362.585,286.064L361.914,286.341C358.138,283.079 353.924,278.885 350.468,275.285C331.375,255.394 309.928,237.083 290.93,217.182L290.956,285.661L272.96,285.702L272.89,177.103Z" style="fill:currentColor;fill-rule:nonzero;"/>
            </g>
            <g id="path7-8-2" transform="matrix(1.398696,0,0,1.398696,-189.601918,-101.915902)">
                <path d="M476.339,178.477C476.897,178.43 476.522,178.427 477.436,178.719C475.86,181.929 435.353,219.684 429.989,225.305C435.141,230.663 441.555,239.178 446.263,245.172C456.871,258.679 467.028,272.216 477.931,285.518L455.213,285.732C444.337,270.393 430.198,252.994 418.544,237.817C413.187,242.947 406.902,250.561 401.937,256.315C401.39,262.542 401.947,278.37 402,285.318C396.441,285.423 390.598,285.34 385.016,285.338L385.298,178.739L402.367,178.767L402.262,228.65C412.934,217.96 423.746,207.41 434.697,197.004C440.947,191.011 447.6,184.345 454.075,178.724L476.339,178.477Z" style="fill:currentColor;fill-rule:nonzero;"/>
            </g>
            <g id="path9-5-2" transform="matrix(1.398696,0,0,1.398696,-189.601918,-101.915902)">
                <path d="M760.682,213.639C763.628,216.914 777.109,245.793 779.814,251.373C784.63,261.313 792.175,275.364 796.603,285.406L777.38,285.519C771.454,273.911 765.067,261.346 759.641,249.536L758.767,249.492C752.141,261.212 745.313,273.948 738.466,285.415L720.565,285.347C733.804,261.504 748.336,237.921 760.682,213.639Z" style="fill:currentColor;fill-rule:nonzero;"/>
            </g>
            <g id="path10-2-5" transform="matrix(1.398696,0,0,1.398696,-189.601918,-101.915902)">
                <path d="M214.636,178.633C215.818,180.04 222.751,193.754 224.928,197.245C211.472,218.955 199.925,242.459 186.675,264.355C182.574,271.132 178.401,278.556 174.828,285.608L166.049,285.586C162.202,285.576 158.356,285.543 154.509,285.484L214.636,178.633Z" style="fill:currentColor;fill-rule:nonzero;"/>
            </g>
            <g id="path11-2-2" transform="matrix(1.398696,0,0,1.398696,-189.601918,-101.915902)">
                <path d="M233.227,216.082C235.147,218.27 240.864,230.154 242.424,233.299C232.795,250.75 222.631,268.236 212.754,285.56L204.091,285.521C200.589,285.511 197.087,285.455 193.587,285.35C207.466,263.455 219.653,238.463 233.227,216.082Z" style="fill:currentColor;fill-rule:nonzero;"/>
            </g>
            <g id="path12-6-2" transform="matrix(1.398696,0,0,1.398696,-189.601918,-101.915902)">
                <path d="M251.399,251.496C253.251,252.8 266.171,281.101 268.198,285.4C261.896,285.49 255.384,285.41 249.063,285.41L231.847,285.392C238.157,273.976 244.676,262.677 251.399,251.499L251.399,251.496Z" style="fill:currentColor;fill-rule:nonzero;"/>
            </g>
            <g transform="matrix(1.398696,0,0,1.398696,179.015474,368.964707)">
                <text x="0px" y="0px" style="font-family:'STHeitiTC-Medium', 'Heiti TC';font-size:31.126px;fill:currentColor;">T<tspan x="14.911px 36.95px 54.227px 76.11px 96.748px 104.625px 119.504px 142.415px 154.618px 162.495px 184.533px 205.172px 214.604px 234.682px 242.559px 265.469px 277.672px 289.097px 311.136px 322.157px " y="0px 0px 0px 0px 0px 0px 0px 0px 0px 0px 0px 0px 0px 0px 0px 0px 0px 0px 0px 0px ">okenization Platform</tspan></text>
            </g>
        </g>
    </g>
</svg>
