<?xml version="1.0" encoding="UTF-8" standalone="no"?>
<svg
   width="939.46558"
   height="439.30469"
   viewBox="0 0 939.46558 439.30469"
   version="1.1"
   id="svg13"
   xml:space="preserve"
   xmlns="http://www.w3.org/2000/svg"
   xmlns:svg="http://www.w3.org/2000/svg"><defs
     id="defs13"><linearGradient
       id="swatch13"><stop
         style="stop-color:#ddcfc9;stop-opacity:1;"
         offset="0"
         id="stop13" /></linearGradient></defs><path
     fill="#6d2721"
     d="M -1.953125e-5,-3.203125e-5 H 939.46568 V 439.30467 H -1.953125e-5 Z"
     id="path1-1-8"
     style="stroke-width:0.999998" /><path
     fill="#ddcfc9"
     d="m 517.96868,176.19907 c 30.832,-3.179 58.459,19.101 61.882,49.907 3.424,30.806 -18.637,58.608 -49.415,62.275 -31.124,3.709 -59.308,-18.655 -62.77,-49.807 -3.462,-31.153 19.124,-59.159 50.303,-62.375 z"
     id="path2-7-5" /><path
     fill="#6d2721"
     d="m 519.59768,193.18307 c 21.435,-2.273 40.685,13.183 43.096,34.602 2.411,21.42 -12.921,40.769 -34.325,43.317 -21.599,2.573 -41.164,-12.93 -43.597,-34.546 -2.433,-21.615 13.196,-41.079 34.826,-43.373 z"
     id="path3-5-8" /><path
     fill="#ddcfc9"
     d="m 742.66068,177.98207 c 1.133,1.014 8.384,15.144 9.923,17.865 -3.863,7.822 -9.561,16.833 -13.804,24.647 -11.771,21.681 -24.86,43.161 -36.216,65.015 -13.121,-0.298 -26.579,0.014 -39.779,-0.136 -7.503,-11.655 -14.195,-24.008 -21.923,-36 l -25.931,-0.109 0.015,35.953 -16.723,0.025 0.057,-83.648 c 0.01,-7.611 -0.04,-15.222 -0.136,-22.832 l 30.732,-0.112 c 10.268,-0.035 23.483,-1.161 33.403,2.259 18.305,6.31 25.175,28.887 18.822,46.072 -4.091,11.066 -11.448,15.832 -22.007,20.407 7.454,12.463 15.635,24.723 23.132,37.307 20.696,-34.522 39.689,-72.741 60.435,-106.713 z"
     id="path4-5-3" /><path
     fill="#6d2721"
     d="m 614.98668,195.20307 c 9.408,0.038 18.825,-0.206 28.233,-0.245 5.636,-0.024 11.087,0.061 15.912,3.485 6.807,4.833 9.4,14.647 6.515,22.376 -0.996,2.67 -2.144,4.188 -3.855,6.376 -9.04,8.286 -34.276,5.649 -46.89,5.728 z"
     id="path5-4-0" /><path
     fill="#ddcfc9"
     d="m 272.88968,177.10307 c 7.73,6.097 17.109,16.971 24.503,23.844 16.138,15.001 31.624,30.8 47.649,45.895 0.342,-22.449 0.037,-45.577 -0.043,-68.071 l 17.451,0.108 c 0.269,35.728 0.314,71.457 0.135,107.185 l -0.671,0.277 c -3.776,-3.262 -7.99,-7.456 -11.446,-11.056 -19.093,-19.891 -40.54,-38.202 -59.538,-58.103 l 0.026,68.479 -17.996,0.041 z"
     id="path6-18-6" /><path
     fill="#ddcfc9"
     d="m 476.33868,178.47707 c 0.558,-0.047 0.183,-0.05 1.097,0.242 -1.576,3.21 -42.083,40.965 -47.447,46.586 5.152,5.358 11.566,13.873 16.274,19.867 10.608,13.507 20.765,27.044 31.668,40.346 l -22.718,0.214 c -10.876,-15.339 -25.015,-32.738 -36.669,-47.915 -5.357,5.13 -11.642,12.744 -16.607,18.498 -0.547,6.227 0.01,22.055 0.063,29.003 -5.559,0.105 -11.402,0.022 -16.984,0.02 l 0.282,-106.599 17.069,0.028 -0.105,49.883 c 10.672,-10.69 21.484,-21.24 32.435,-31.646 6.25,-5.993 12.903,-12.659 19.378,-18.28 z"
     id="path7-8-2" /><path
     fill="#ddcfc9"
     d="m 760.68168,213.63907 c 2.946,3.275 16.427,32.154 19.132,37.734 4.816,9.94 12.361,23.991 16.789,34.033 l -19.223,0.113 c -5.926,-11.608 -12.313,-24.173 -17.739,-35.983 l -0.874,-0.044 c -6.626,11.72 -13.454,24.456 -20.301,35.923 l -17.901,-0.068 c 13.239,-23.843 27.771,-47.426 40.117,-71.708 z"
     id="path9-5-2" /><path
     fill="#ddcfc9"
     d="m 214.63568,178.63307 c 1.182,1.407 8.115,15.121 10.292,18.612 -13.456,21.71 -25.003,45.214 -38.253,67.11 -4.101,6.777 -8.274,14.201 -11.847,21.253 l -8.779,-0.022 c -3.847,-0.01 -7.693,-0.043 -11.54,-0.102 z"
     id="path10-2-5" /><path
     fill="#ddcfc9"
     d="m 233.22668,216.08207 c 1.92,2.188 7.637,14.072 9.197,17.217 -9.629,17.451 -19.793,34.937 -29.67,52.261 l -8.663,-0.039 c -3.502,-0.01 -7.004,-0.066 -10.504,-0.171 13.879,-21.895 26.066,-46.887 39.64,-69.268 z"
     id="path11-2-2" /><path
     fill="#ddcfc9"
     d="m 251.39868,251.49607 c 1.852,1.304 14.772,29.605 16.799,33.904 -6.302,0.09 -12.814,0.01 -19.135,0.01 l -17.216,-0.018 c 6.31,-11.416 12.829,-22.715 19.552,-33.893 z"
     id="path12-6-2" /><text
     xml:space="preserve"
     style="font-style:normal;font-variant:normal;font-weight:bold;font-stretch:normal;font-size:31.1259px;font-family:'Heiti TC';-inkscape-font-specification:'Heiti TC Bold';letter-spacing:5.30556px;word-spacing:0px;fill:#ddcfc9;fill-opacity:1;stroke:#800080;stroke-width:0;stroke-dashoffset:0.399999;paint-order:fill markers stroke"
     x="263.5437"
     y="336.65698"
     id="text18"><tspan
       id="tspan18"
       x="263.5437"
       y="336.65698"
       style="font-style:normal;font-variant:normal;font-weight:bold;font-stretch:normal;font-family:'Heiti TC';-inkscape-font-specification:'Heiti TC Bold';stroke-width:0">Tokenization Platform</tspan></text></svg>
